<?xml version="1.0" encoding="UTF-8"?>
<svg id="a" data-name="Layer 1" xmlns="http://www.w3.org/2000/svg" width="2582.3317" height="540" viewBox="0 0 2582.3317 540">
  <path d="M977.882,215.0351v39.6953h-115.3047v44.1055h97.0315v40.0091h-97.0315v84.1161h-54.1874v-207.9259h169.4921Z" fill="#353229"/>
  <path d="M1089.7209,262.9217h12.2862v47.2559h-17.9563c-14.0737,0-24.4709,3.7795-31.1901,11.3402-6.7238,7.5622-10.0803,19.6407-10.0803,36.2295v65.2137h-51.037v-159.7255h49.1464v23.3141h4.4102c8.6097-15.752,23.4172-23.6279,44.4208-23.6279Z" fill="#353229"/>
  <path d="M1147.5309,414.7697c-13.7584-7.5606-23.7864-17.5871-30.0872-30.0856-6.3008-12.4939-9.4512-26.1984-9.4512-41.1135,0-15.5397,3.1504-29.6626,9.4512-42.3719,6.3008-12.7046,16.3288-22.8896,30.0872-30.5594,13.7522-7.6637,31.3455-11.4986,52.7691-11.4986s39.0107,3.8349,52.7691,11.4986c13.7522,7.6699,23.7849,17.8548,30.0856,30.5594,6.3008,12.7093,9.4512,26.8322,9.4512,42.3719,0,14.9151-3.1504,28.5658-9.4512,40.9551-6.3008,12.3954-16.3334,22.4219-30.0856,30.0872-13.7584,7.6683-31.347,11.4986-52.7691,11.4986s-39.0169-3.7811-52.7691-11.3417ZM1200.3,387.676c27.5106,0,41.2689-14.6982,41.2689-44.1055,0-14.909-3.415-26.3538-10.2388-34.339-6.8269-7.979-17.1687-11.9709-31.0301-11.9709s-24.2094,3.9918-31.0317,11.9709c-6.8284,7.9852-10.2388,19.43-10.2388,34.339,0,29.4073,13.7537,44.1055,41.2705,44.1055Z" fill="#353229"/>
  <path d="M1415.7865,258.8253c20.5806,0,36.0711,5.7793,46.4683,17.3272,10.3957,11.554,15.5935,27.9351,15.5935,49.1464v97.6622h-50.7201v-89.4708c0-11.3417-2.6781-19.9515-8.0344-25.8338-5.3547-5.8778-13.2861-8.8205-23.7849-8.8205-12.1832,0-21.5313,3.7795-28.0382,11.3417-6.5131,7.5606-9.7665,19.01-9.7665,34.339v78.4445h-51.037v-159.7255h51.037v22.3681h4.4102c11.9709-17.8486,29.9287-26.7783,53.872-26.7783Z" fill="#353229"/>
  <path d="M1874.7511,233.4589c11.3402,12.497,17.0103,28.8258,17.0103,48.988,0,21.2159-5.6701,38.1739-17.0103,50.8785-11.3433,12.7108-28.8796,19.0608-52.6122,19.0608h-64.2692v70.2531h-54.1843v-207.9259h118.7673c23.5203,0,40.9551,6.2516,52.2984,18.7455ZM1805.1256,313.6354c10.9187,0,18.9516-2.7812,24.1017-8.3482,5.144-5.5624,7.7191-13.0738,7.7191-22.525,0-19.5331-10.2942-29.2996-30.8732-29.2996h-48.2035v60.1728h47.2559Z" fill="#353229"/>
  <path d="M1947.8408,426.7342c-16.3796,0-29.5103-4.1441-39.3799-12.4431-9.8727-8.2944-14.8044-19.5823-14.8044-33.8667,0-13.02,4.0395-23.4172,12.1278-31.1886,8.0821-7.7683,22.4158-13.4384,43.0041-17.0134l38.1185-6.3008c7.5622-1.2598,12.8077-2.992,15.752-5.1978,2.9381-2.2044,4.4118-5.5132,4.4118-9.9234,0-5.6701-2.1044-9.9234-6.3008-12.7585-4.2057-2.8366-11.5555-4.2533-22.0527-4.2533-21.2159,0-32.0331,7.7729-32.4515,23.3126h-49.4587c0-18.0609,7.2453-32.0792,21.7359-42.0581,14.4937-9.9727,34.442-14.9644,59.8575-14.9644,24.9909,0,43.684,4.7256,56.0764,14.1768s18.7947,23.1065,19.2192,40.9551l2.5197,107.4287h-44.1055l-1.2614-21.1082h-4.4087c-10.9248,16.8057-30.4548,25.2031-58.5992,25.2031ZM1966.4294,394.6011c12.177-.6307,22.0527-4.6717,29.6149-12.1293,7.5591-7.453,11.3402-17.2733,11.3402-29.4565v-4.7256l-39.6937,8.1913c-7.7745,1.6829-13.5492,4.0949-17.3272,7.2453-3.7811,3.1504-5.6732,7.2468-5.6732,12.2878,0,12.8123,7.2484,19.01,21.7389,18.587Z" fill="#353229"/>
  <path d="M2088.9809,281.0286c12.6016-15.0136,31.5039-22.525,56.7071-22.525,23.0988,0,40.6382,6.5131,52.6091,19.5331h4.7256v-15.1228h51.6677v158.4657c0,25.2031-7.353,43.8932-22.0527,56.0764-14.7029,12.1785-38.6477,18.2732-71.8283,18.2732-18.4839,0-34.1836-2.7874-47.099-8.3498-12.9154-5.567-22.6342-13.0738-29.1411-22.525-6.5131-9.4512-9.9773-19.9561-10.3957-31.5039h49.7756c.6307,7.979,4.2518,14.6982,10.8695,20.1622,6.6146,5.4593,16.2227,8.1913,28.8242,8.1913,13.4384,0,23.3634-2.6289,29.7718-7.876,6.4054-5.2517,9.6081-13.5461,9.6081-24.8878v-25.8338h-4.7256c-11.7647,13.0261-29.298,19.5331-52.6091,19.5331-25.4154,0-44.3732-7.5606-56.8671-22.6834-12.497-15.1213-18.7424-34.8604-18.7424-59.2268,0-24.7801,6.3008-44.6808,18.9024-59.7006ZM2131.5112,375.5403c6.5069,7.4576,17.1149,11.1848,31.8177,11.1848,14.0691,0,24.2033-3.7811,30.4025-11.3417,6.19-7.5606,9.2912-19.0054,9.2912-34.339,0-14.6982-3.1504-25.78-9.4512-33.2376-6.3008-7.4514-16.3796-11.1833-30.2425-11.1833-14.7029,0-25.3108,3.6765-31.8177,11.0264-6.5131,7.3545-9.7681,18.6962-9.7681,34.0236,0,15.1228,3.255,26.4153,9.7681,33.8667Z" fill="#353229"/>
  <path d="M2305.7242,414.448c-13.2323-7.5606-22.8957-17.6425-28.9842-30.2441-6.0947-12.6016-9.1343-26.5661-9.1343-41.8996,0-15.9581,3.1996-30.2441,9.6081-42.8456,6.4023-12.6016,16.2719-22.525,29.6118-29.7703,13.3369-7.2468,29.8764-10.8695,49.6187-10.8695,30.0333,0,51.9292,7.7191,65.6875,23.1557,13.7522,15.4366,20.6345,35.4419,20.6345,60.0144,0,4.8348-.3138,9.0328-.9445,12.6016h-124.4405c1.2583,13.443,5.2455,23.1557,11.9709,29.1411,6.7192,5.9854,16.1704,8.9789,28.3535,8.9789,9.2389,0,16.7457-1.7813,22.5265-5.3563,5.7716-3.5688,9.9219-8.3975,12.4416-14.4906h49.4618c-2.9443,15.3336-11.2387,27.989-24.8863,37.9616-13.6568,9.9773-33.9221,14.9644-60.805,14.9644-20.5852,0-37.4878-3.7811-50.7201-11.3417ZM2394.249,325.6078c-1.0522-10.5003-4.6764-18.8485-10.8664-25.0462-6.1993-6.1931-14.8628-9.2943-25.9907-9.2943-22.6834,0-35.9157,11.4509-39.6968,34.3405h76.5539Z" fill="#353229"/>
  <path d="M2455.6817,247.6608v-5.4473h44.8336l11.5227,33.2069,11.4178-33.2069h11.8371v40.4348h-6.8091v-33.7301h-.6282l-12.0465,33.7301h-7.7516l-12.1514-33.9401h-.5237v33.9401h-6.9135v-34.9875l-12.0465.1044-.105,34.8831h-6.8086v-34.8831l-13.8271-.1044Z" fill="#353229"/>
  <path d="M1510.7629,245.9144h25.9992v17.321h-51.6677l-.6307,37.1756h35.9157v68.6779c0,13.0246,1.6798,23.368,5.0394,31.0317,3.3596,7.6699,9.242,13.3892,17.644,17.1703,8.399,3.7795,20.1637,5.6701,35.2842,5.6701h45.05v-38.7492h-51.9815v-83.8008h51.037v-37.1756l-50.7232-.3138v-50.7216h-61.115v23.9433l.1485,9.7711Z" fill="#353229"/>
  <g>
    <g>
      <path d="M553.4564,30.2581h-80.5045c-9.6052,0-17.3918,7.7866-17.3918,17.3918v51.1084c0,12.7227-10.3138,23.0365-23.0365,23.0365h-70.183c-9.6052,0-17.3918,7.7866-17.3918,17.3918v267.1869c0,9.6052,7.7866,17.3918,17.3918,17.3918h89.904c3.6648,0,6.6358-2.971,6.6358-6.6358l.7794-63.4704c0-3.6648,2.971-6.6358,6.6358-6.6358h87.2738c9.6052,0,17.3918-7.7866,17.3918-17.3918v-65.8913c0-9.6052-7.7866-17.3918-17.3918-17.3918h-87.2738c-3.6648,0-6.6358-2.971-6.6358-6.6358l-.7794-102.9335c0-3.6648,2.971-6.6358,6.6358-6.6358h87.9401c9.6052,0,17.3918-7.7866,17.3918-17.3918V47.6499c0-9.6052-7.7866-17.3918-17.3918-17.3918Z" fill="#353229"/>
      <rect x="546.3783" y="157.5996" width="114.7708" height="109.2009" rx="5.0325" ry="5.0325" fill="#353229"/>
    </g>
    <path d="M259.598,30.2581h-80.5045c-9.6052,0-17.3918,7.7866-17.3918,17.3918v51.1084c0,12.7227-10.3138,23.0365-23.0365,23.0365h-70.183c-9.6052,0-17.3918,7.7866-17.3918,17.3918v267.1869c0,9.6052,7.7866,17.3918,17.3918,17.3918h89.904c3.6648,0,6.6358-2.971,6.6358-6.6358l.7794-63.4704c0-3.6648,2.971-6.6358,6.6358-6.6358h75.43c9.6052,0,17.3918-7.7866,17.3918-17.3918v-65.8913c0-9.6052-7.7866-17.3918-17.3918-17.3918h-75.43c-3.6648,0-6.6358-2.971-6.6358-6.6358l-.7794-102.9335c0-3.6648,2.971-6.6358,6.6358-6.6358h87.9401c9.6052,0,17.3918-7.7866,17.3918-17.3918V47.6499c0-9.6052-7.7866-17.3918-17.3918-17.3918Z" fill="#353229"/>
  </g>
</svg>