<?xml version="1.0" encoding="UTF-8"?>
<svg id="a" data-name="Layer 1" xmlns="http://www.w3.org/2000/svg" width="955.921" height="644.7285" viewBox="0 0 955.921 644.7285">
  <path d="M119.877,488.9255v18.952h-55.0507v21.0576h46.3264v19.1018h-46.3264v40.1602h-25.8711v-99.2716h80.9218Z" fill="#fffff7"/>
  <path d="M173.2731,511.7883h5.8659v22.5617h-8.573c-6.7193,0-11.6833,1.8045-14.8913,5.4142-3.2102,3.6105-4.8127,9.3772-4.8127,17.2973v31.1355h-24.367v-76.2589h23.4643v11.131h2.1056c4.1106-7.5206,11.1802-11.2809,21.2082-11.2809Z" fill="#fffff7"/>
  <path d="M200.8737,584.2862c-6.5688-3.6097-11.3565-8.3967-14.3647-14.364-3.0082-5.965-4.5123-12.5081-4.5123-19.6291,0-7.4192,1.5041-14.162,4.5123-20.2299,3.0082-6.0657,7.796-10.9283,14.3647-14.5902,6.5658-3.6589,14.9655-5.4899,25.1939-5.4899s18.6252,1.8309,25.1939,5.4899c6.5658,3.6619,11.3558,8.5245,14.364,14.5902,3.0082,6.0679,4.5123,12.8107,4.5123,20.2299,0,7.121-1.5041,13.6384-4.5123,19.5535-3.0082,5.918-7.7982,10.7051-14.364,14.3647-6.5688,3.6611-14.9662,5.4899-25.1939,5.4899s-18.6281-1.8052-25.1939-5.415ZM226.0677,571.3506c13.1346,0,19.7033-7.0175,19.7033-21.0576,0-7.1181-1.6304-12.5823-4.8884-16.3947-3.2594-3.8095-8.197-5.7153-14.8149-5.7153s-11.5585,1.9058-14.8157,5.7153c-3.2601,3.8124-4.8884,9.2766-4.8884,16.3947,0,14.0401,6.5665,21.0576,19.704,21.0576Z" fill="#fffff7"/>
  <path d="M328.949,509.8325c9.826,0,17.2217,2.7593,22.1857,8.2726,4.9633,5.5163,7.4449,13.3373,7.4449,23.4643v46.6276h-24.2157v-42.7167c0-5.415-1.2786-9.5256-3.8359-12.334-2.5566-2.8063-6.3433-4.2112-11.3558-4.2112-5.8167,0-10.2798,1.8045-13.3865,5.415-3.1096,3.6097-4.6629,9.0761-4.6629,16.3947v37.4523h-24.367v-76.2589h24.367v10.6794h2.1056c5.7153-8.5216,14.2891-12.785,25.7205-12.785Z" fill="#fffff7"/>
  <path d="M601.5986,491.8588c5.4142,5.9665,8.1213,13.7625,8.1213,23.3887,0,10.1293-2.7071,18.2256-8.1213,24.2913-5.4157,6.0686-13.7882,9.1003-25.119,9.1003h-30.6845v33.5415h-25.8696v-99.2716h56.7039c11.2294,0,19.5535,2.9847,24.9692,8.9498ZM568.3568,530.1381c5.213,0,9.0482-1.3279,11.5071-3.9858,2.4559-2.6557,3.6854-6.2419,3.6854-10.7543,0-9.3258-4.9148-13.9887-14.74-13.9887h-23.0141v28.7287h22.5617Z" fill="#fffff7"/>
  <path d="M636.4944,584.1356c-7.8202,0-14.0893-1.9786-18.8014-5.9408-4.7136-3.9601-7.0682-9.3493-7.0682-16.1692,0-6.2162,1.9286-11.1802,5.7903-14.8906,3.8587-3.7089,10.7021-6.416,20.5318-8.1228l18.1992-3.0082c3.6105-.6015,6.1149-1.4285,7.5206-2.4816,1.4028-1.0524,2.1063-2.6322,2.1063-4.7378,0-2.7071-1.0047-4.7378-3.0082-6.0914-2.0079-1.3543-5.517-2.0307-10.5288-2.0307-10.1293,0-15.2938,3.7111-15.4936,11.1303h-23.6134c0-8.623,3.4592-15.3158,10.3775-20.0801,6.9198-4.7613,16.4439-7.1445,28.5782-7.1445,11.9316,0,20.8564,2.2562,26.7729,6.7685s8.9733,11.0319,9.176,19.5535l1.203,51.2905h-21.0576l-.6022-10.0779h-2.1049c-5.2159,8.0237-14.5403,12.0329-27.9774,12.0329ZM645.3692,568.7941c5.8138-.3011,10.5288-2.2305,14.1393-5.791,3.609-3.5583,5.4142-8.2469,5.4142-14.0636v-2.2562l-18.9513,3.9108c-3.7118.8035-6.4689,1.9551-8.2726,3.4592-1.8052,1.5041-2.7086,3.4599-2.7086,5.8666,0,6.1171,3.4606,9.0761,10.379,8.8741Z" fill="#fffff7"/>
  <path d="M703.8799,514.5703c6.0165-7.168,15.0411-10.7543,27.0741-10.7543,11.0282,0,19.4022,3.1096,25.1175,9.3258h2.2562v-7.2202h24.6681v75.6574c0,12.0329-3.5106,20.9563-10.5288,26.7729-7.0197,5.8145-18.4518,8.7243-34.2935,8.7243-8.8249,0-16.3205-1.3308-22.4868-3.9865-6.1663-2.6579-10.8064-6.2419-13.9131-10.7543-3.1096-4.5123-4.7635-9.5278-4.9633-15.0411h23.7647c.3011,3.8095,2.03,7.0175,5.1895,9.6262,3.1581,2.6065,7.7453,3.9108,13.7618,3.9108,6.416,0,11.1545-1.2551,14.2142-3.7603,3.0582-2.5073,4.5873-6.4674,4.5873-11.8824v-12.334h-2.2562c-5.6169,6.2192-13.988,9.3258-25.1175,9.3258-12.1343,0-21.1854-3.6097-27.1504-10.8299-5.9665-7.2195-8.9483-16.6437-8.9483-28.2771,0-11.8309,3.0082-21.3323,9.0247-28.5033ZM724.1854,559.6938c3.1066,3.5605,8.1713,5.34,15.191,5.34,6.7171,0,11.5555-1.8052,14.5153-5.415,2.9554-3.6097,4.436-9.0739,4.436-16.3947,0-7.0175-1.5041-12.3083-4.5123-15.8688-3.0082-3.5576-7.8202-5.3393-14.4389-5.3393-7.0197,0-12.0843,1.7553-15.191,5.2644-3.1096,3.5113-4.6636,8.9263-4.6636,16.2441,0,7.2202,1.5541,12.6116,4.6636,16.1692Z" fill="#fffff7"/>
  <path d="M807.3612,578.2697c-6.3176-3.6097-10.9313-8.4232-13.8381-14.4396-2.9098-6.0165-4.3611-12.6836-4.3611-20.0044,0-7.619,1.5276-14.4396,4.5873-20.4561,3.0567-6.0165,7.7688-10.7543,14.1378-14.2134,6.3675-3.4599,14.2641-5.1895,23.6898-5.1895,14.339,0,24.7929,3.6854,31.3617,11.0554,6.5658,7.37,9.8517,16.9213,9.8517,28.6531,0,2.3083-.1498,4.3126-.4509,6.0165h-59.4125c.6008,6.4182,2.5044,11.0554,5.7153,13.9131,3.208,2.8577,7.7203,4.2869,13.537,4.2869,4.411,0,7.995-.8505,10.755-2.5573,2.7556-1.7039,4.7371-4.0093,5.9401-6.9183h23.6149c-1.4057,7.3208-5.3658,13.363-11.8816,18.1243-6.5203,4.7635-16.1957,7.1445-29.0306,7.1445-9.8282,0-17.8981-1.8052-24.2157-5.415ZM849.6262,535.8541c-.5024-5.0132-2.2327-8.999-5.188-11.958-2.9598-2.9568-7.0961-4.4374-12.4089-4.4374-10.8299,0-17.1475,5.4671-18.9527,16.3954h36.5497Z" fill="#fffff7"/>
  <path d="M878.9565,498.6393v-2.6007h21.4052l5.5014,15.8542,5.4513-15.8542h5.6515v19.3051h-3.2509v-16.104h-.2999l-5.7514,16.104h-3.7009l-5.8015-16.2042h-.2501v16.2042h-3.3008v-16.7043l-5.7514.0499-.0501,16.6545h-3.2507v-16.6545l-6.6016-.0499Z" fill="#fffff7"/>
  <path d="M374.2942,503.6684h12.413v8.2697h-24.6681l-.3011,17.749h17.1475v32.7894c0,6.2184.802,11.1567,2.406,14.8157,1.604,3.6619,4.4125,6.3925,8.4239,8.1977,4.01,1.8045,9.6269,2.7071,16.846,2.7071h21.5085v-18.5003h-24.8179v-40.0096h24.367v-17.749l-24.2171-.1498v-24.2164h-29.1786v11.4314l.0709,4.6651Z" fill="#fffff7"/>
  <g>
    <g>
      <path d="M680.1627,27.6522h-76.8717c-9.1718,0-16.607,7.4352-16.607,16.607v48.8021c0,12.1486-9.8484,21.997-21.997,21.997h-67.016c-9.1718,0-16.607,7.4352-16.607,16.607v255.13c0,9.1718,7.4352,16.607,16.607,16.607h85.8471c3.4994,0,6.3364-2.837,6.3364-6.3364l.7442-60.6062c0-3.4994,2.837-6.3364,6.3364-6.3364h83.3355c9.1718,0,16.607-7.4352,16.607-16.607v-62.9179c0-9.1718-7.4352-16.607-16.607-16.607h-83.3355c-3.4994,0-6.3364-2.837-6.3364-6.3364l-.7442-98.2886c0-3.4994,2.837-6.3364,6.3364-6.3364h83.9718c9.1718,0,16.607-7.4352,16.607-16.607v-62.1638c0-9.1718-7.4352-16.607-16.607-16.607Z" fill="#fffff7"/>
      <path d="M688.6375,149.2473h79.1247c8.4076,0,15.2335,6.8259,15.2335,15.2335v73.8061c0,8.4076-6.8259,15.2335-15.2335,15.2335h-79.1247c-8.4076,0-15.2335-6.8259-15.2335-15.2335v-73.8061c0-8.4076,6.8259-15.2335,15.2335-15.2335Z" fill="#fffff7"/>
    </g>
    <path d="M399.5648,27.6522h-76.8717c-9.1718,0-16.607,7.4352-16.607,16.607v48.8021c0,12.1486-9.8484,21.997-21.997,21.997h-67.016c-9.1718,0-16.607,7.4352-16.607,16.607v255.13c0,9.1718,7.4352,16.607,16.607,16.607h85.8471c3.4994,0,6.3364-2.837,6.3364-6.3364l.7442-60.6062c0-3.4994,2.837-6.3364,6.3364-6.3364h72.0262c9.1718,0,16.607-7.4352,16.607-16.607v-62.9179c0-9.1718-7.4352-16.607-16.607-16.607h-72.0262c-3.4994,0-6.3364-2.837-6.3364-6.3364l-.7442-98.2886c0-3.4994,2.837-6.3364,6.3364-6.3364h83.9718c9.1718,0,16.607-7.4352,16.607-16.607v-62.1638c0-9.1718-7.4352-16.607-16.607-16.607Z" fill="#fffff7"/>
  </g>
</svg>