<?xml version="1.0" encoding="UTF-8"?>
<svg id="a" data-name="Layer 1" xmlns="http://www.w3.org/2000/svg" width="634.3946" height="441.4675" viewBox="0 0 634.3946 441.4675">
  <path d="M84.5692,333.4669v12.6001h-36.6001v14h30.7998v12.6997h-30.7998v26.7002h-17.2002v-66h53.8003Z" fill="#353229"/>
  <path d="M120.0692,348.6671h3.8999v15h-5.6997c-4.4673,0-7.7676,1.1997-9.9004,3.5996-2.1343,2.4004-3.1997,6.2344-3.1997,11.5v20.7002h-16.2002v-50.7002h15.6001v7.4004h1.3999c2.7329-5,7.4331-7.5,14.1001-7.5Z" fill="#353229"/>
  <path d="M138.4193,396.8668c-4.3672-2.3999-7.5503-5.5825-9.5503-9.5498-2-3.9658-3-8.3159-3-13.0503,0-4.9326,1-9.4155,3-13.4497,2-4.0327,5.1831-7.2656,9.5503-9.7002,4.3652-2.4326,9.9497-3.6499,16.75-3.6499s12.3828,1.2173,16.75,3.6499c4.3652,2.4346,7.5498,5.6675,9.5498,9.7002,2,4.0342,3,8.5171,3,13.4497,0,4.7344-1,9.0674-3,13-2,3.9346-5.1846,7.1172-9.5498,9.5503-4.3672,2.4341-9.9502,3.6499-16.75,3.6499s-12.3848-1.2002-16.75-3.6001ZM155.1693,388.2667c8.7324,0,13.0996-4.6655,13.0996-14,0-4.7324-1.084-8.3652-3.25-10.8999-2.167-2.5327-5.4497-3.7998-9.8496-3.7998s-7.6846,1.2671-9.8501,3.7998c-2.1675,2.5347-3.25,6.1675-3.25,10.8999,0,9.3345,4.3657,14,13.1001,14Z" fill="#353229"/>
  <path d="M223.5692,347.3668c6.5327,0,11.4497,1.8345,14.75,5.5,3.2998,3.6675,4.9497,8.8672,4.9497,15.6001v31h-16.0996v-28.3999c0-3.6001-.8501-6.333-2.5503-8.2002-1.6997-1.8657-4.2173-2.7998-7.5498-2.7998-3.8672,0-6.8345,1.1997-8.8999,3.6001-2.0674,2.3999-3.1001,6.0342-3.1001,10.8999v24.8999h-16.2002v-50.7002h16.2002v7.1001h1.3999c3.7998-5.6655,9.5-8.5,17.1001-8.5Z" fill="#353229"/>
  <path d="M404.8384,335.4171c3.5996,3.9668,5.3994,9.1499,5.3994,15.5498,0,6.7344-1.7998,12.1172-5.3994,16.1499-3.6006,4.0347-9.167,6.0503-16.7002,6.0503h-20.4004v22.2998h-17.1992v-66h37.6992c7.4658,0,13,1.9844,16.6006,5.9502ZM382.7378,360.8668c3.4658,0,6.0156-.8828,7.6504-2.6499,1.6328-1.7656,2.4502-4.1499,2.4502-7.1499,0-6.2002-3.2676-9.3003-9.7998-9.3003h-15.3008v19.1001h15Z" fill="#353229"/>
  <path d="M428.0386,396.7667c-5.1992,0-9.3672-1.3154-12.5-3.9497-3.1338-2.6328-4.6992-6.2158-4.6992-10.75,0-4.1328,1.2822-7.4331,3.8496-9.8999,2.5654-2.4658,7.1152-4.2656,13.6504-5.4004l12.0996-2c2.4004-.3999,4.0654-.9497,5-1.6499.9326-.6997,1.4004-1.75,1.4004-3.1499,0-1.7998-.668-3.1499-2-4.0498-1.335-.9004-3.668-1.3501-7-1.3501-6.7344,0-10.168,2.4673-10.3008,7.3999h-15.6992c0-5.7329,2.2998-10.1826,6.8994-13.3501,4.6006-3.1655,10.9326-4.75,19-4.75,7.9326,0,13.8662,1.5,17.7998,4.5s5.9658,7.3345,6.1006,13l.7998,34.1001h-14l-.4004-6.7002h-1.3994c-3.4678,5.3345-9.667,8-18.6006,8ZM433.939,386.567c3.8652-.2002,7-1.4829,9.4004-3.8501,2.3994-2.3657,3.5996-5.4829,3.5996-9.3501v-1.5l-12.5996,2.6001c-2.4678.5342-4.3008,1.2998-5.5,2.2998-1.2002,1-1.8008,2.3003-1.8008,3.9004,0,4.0669,2.3008,6.0342,6.9004,5.8999Z" fill="#353229"/>
  <path d="M472.8394,350.5167c4-4.7656,10-7.1499,18-7.1499,7.332,0,12.8994,2.0674,16.6992,6.2002h1.5v-4.8003h16.4004v50.3003c0,8-2.334,13.9326-7,17.7998-4.667,3.8657-12.2676,5.8003-22.7998,5.8003-5.8672,0-10.8506-.8848-14.9502-2.6504-4.0996-1.7671-7.1846-4.1499-9.25-7.1499-2.0674-3-3.167-6.3345-3.2998-10h15.7998c.2002,2.5327,1.3496,4.6655,3.4502,6.3999,2.0996,1.7329,5.1494,2.6001,9.1494,2.6001,4.2656,0,7.416-.8345,9.4502-2.5,2.0332-1.667,3.0498-4.2998,3.0498-7.8999v-8.2002h-1.5c-3.7344,4.1348-9.2998,6.2002-16.6992,6.2002-8.0674,0-14.085-2.3999-18.0508-7.2002-3.9668-4.7998-5.9492-11.0654-5.9492-18.7998,0-7.8657,2-14.1826,6-18.9502ZM486.3394,380.5167c2.0654,2.3672,5.4326,3.5503,10.0996,3.5503,4.4658,0,7.6826-1.2002,9.6504-3.6001,1.9648-2.3999,2.9492-6.0327,2.9492-10.8999,0-4.6655-1-8.1831-3-10.5503-2-2.3652-5.1992-3.5498-9.5996-3.5498-4.667,0-8.0342,1.167-10.0996,3.5-2.0674,2.3345-3.1006,5.9346-3.1006,10.7998,0,4.8003,1.0332,8.3848,3.1006,10.75Z" fill="#353229"/>
  <path d="M541.6382,392.8668c-4.2002-2.3999-7.2676-5.6001-9.2002-9.6001-1.9346-4-2.8994-8.4326-2.8994-13.2998,0-5.0654,1.0156-9.6001,3.0498-13.6001,2.0322-4,5.165-7.1499,9.3994-9.4497,4.2334-2.3003,9.4834-3.4502,15.75-3.4502,9.5332,0,16.4834,2.4502,20.8506,7.3501,4.3652,4.8999,6.5498,11.25,6.5498,19.0498,0,1.5347-.0996,2.8672-.2998,4h-39.5c.3994,4.2671,1.665,7.3501,3.7998,9.25,2.1328,1.8999,5.1328,2.8501,9,2.8501,2.9326,0,5.3154-.5654,7.1504-1.7002,1.832-1.1328,3.1494-2.6655,3.9492-4.5996h15.7002c-.9346,4.8672-3.5674,8.8843-7.8994,12.0498-4.335,3.167-10.7676,4.75-19.3008,4.75-6.5342,0-11.8994-1.2002-16.0996-3.6001ZM569.7378,364.6671c-.334-3.333-1.4844-5.9829-3.4492-7.9502-1.9678-1.9658-4.7178-2.9502-8.25-2.9502-7.2002,0-11.4004,3.6348-12.6006,10.9004h24.2998Z" fill="#353229"/>
  <path d="M589.2378,339.9251v-1.7291h14.2311l3.6576,10.5406,3.6242-10.5406h3.7573v12.8349h-2.1614v-10.7066h-.1994l-3.8238,10.7066h-2.4605l-3.8571-10.7733h-.1662v10.7733h-2.1945v-11.1058l-3.8238.0331-.0333,11.0726h-2.1612v-11.0726l-4.389-.0331Z" fill="#353229"/>
  <path d="M253.7167,343.2686h8.2527v5.498h-16.4004l-.2002,11.8003h11.4004v21.7998c0,4.1343.5332,7.4175,1.5996,9.8501,1.0664,2.4346,2.9336,4.25,5.6006,5.4502,2.666,1.1997,6.4004,1.7998,11.2,1.7998h14.2998v-12.2998h-16.5v-26.6001h16.2002v-11.8003l-16.1006-.0996v-16.1001h-19.3992v7.6001l.0471,3.1016Z" fill="#353229"/>
  <g>
    <g>
      <path d="M457.0712,26.7926h-51.1076c-6.0978,0-11.041,4.9432-11.041,11.041v32.4457c0,8.0769-6.5476,14.6245-14.6245,14.6245h-44.5551c-6.0978,0-11.041,4.9432-11.041,11.041v169.6214c0,6.0978,4.9432,11.041,11.041,11.041h57.0748c2.3266,0,4.2127-1.8861,4.2127-4.2127l.4948-40.2936c0-2.3266,1.8861-4.2127,4.2127-4.2127h55.405c6.0978,0,11.041-4.9432,11.041-11.041v-41.8305c0-6.0978-4.9432-11.041-11.041-11.041h-55.405c-2.3266,0-4.2127-1.8861-4.2127-4.2127l-.4948-65.3465c0-2.3266,1.8861-4.2127,4.2127-4.2127h55.828c6.0978,0,11.041-4.9432,11.041-11.041v-41.3292c0-6.0978-4.9432-11.041-11.041-11.041Z" fill="#353229"/>
      <path d="M467.8112,107.6342h42.3943c8.4076,0,15.2335,6.8259,15.2335,15.2335v38.8582c0,8.4076-6.8259,15.2335-15.2335,15.2335h-42.3943c-8.4076,0-15.2335-6.8259-15.2335-15.2335v-38.8582c0-8.4076,6.8259-15.2335,15.2335-15.2335Z" fill="#353229"/>
    </g>
    <path d="M270.5177,26.7926h-51.1076c-6.0978,0-11.041,4.9432-11.041,11.041v32.4457c0,8.0769-6.5476,14.6245-14.6245,14.6245h-44.5551c-6.0978,0-11.041,4.9432-11.041,11.041v169.6214c0,6.0978,4.9432,11.041,11.041,11.041h57.0748c2.3266,0,4.2127-1.8861,4.2127-4.2127l.4948-40.2936c0-2.3266,1.8861-4.2127,4.2127-4.2127h47.8861c6.0978,0,11.041-4.9432,11.041-11.041v-41.8305c0-6.0978-4.9432-11.041-11.041-11.041h-47.8861c-2.3266,0-4.2127-1.8861-4.2127-4.2127l-.4948-65.3465c0-2.3266,1.8861-4.2127,4.2127-4.2127h55.828c6.0978,0,11.041-4.9432,11.041-11.041v-41.3292c0-6.0978-4.9432-11.041-11.041-11.041Z" fill="#353229"/>
  </g>
</svg>